<mxfile host="app.diagrams.net" modified="2023-11-20T12:18:09.056Z" agent="Mozilla/5.0 (Windows NT 10.0; Win64; x64) AppleWebKit/537.36 (KHTML, like Gecko) Chrome/119.0.0.0 Safari/537.36" etag="Aiv8LVccau-UdMIbWCED" version="22.1.3" type="github">
  <diagram name="Page-1" id="VcDF81wQu0JRFsIFgcLP">
    <mxGraphModel dx="1728" dy="950" grid="1" gridSize="10" guides="1" tooltips="1" connect="1" arrows="1" fold="1" page="1" pageScale="1" pageWidth="850" pageHeight="1100" math="0" shadow="0">
      <root>
        <mxCell id="0" />
        <mxCell id="1" parent="0" />
        <mxCell id="2wMZLsTm2W_XDd2I_gO9-9" style="edgeStyle=orthogonalEdgeStyle;rounded=0;orthogonalLoop=1;jettySize=auto;html=1;endArrow=ERmany;endFill=0;startArrow=ERone;startFill=0;" edge="1" parent="1" source="2wMZLsTm2W_XDd2I_gO9-4" target="2wMZLsTm2W_XDd2I_gO9-5">
          <mxGeometry relative="1" as="geometry" />
        </mxCell>
        <mxCell id="2wMZLsTm2W_XDd2I_gO9-10" style="edgeStyle=orthogonalEdgeStyle;rounded=0;orthogonalLoop=1;jettySize=auto;html=1;entryX=0.5;entryY=1;entryDx=0;entryDy=0;endArrow=ERmany;endFill=0;startArrow=ERone;startFill=0;" edge="1" parent="1" source="2wMZLsTm2W_XDd2I_gO9-4" target="2wMZLsTm2W_XDd2I_gO9-7">
          <mxGeometry relative="1" as="geometry" />
        </mxCell>
        <mxCell id="2wMZLsTm2W_XDd2I_gO9-4" value="Utleie" style="rounded=0;whiteSpace=wrap;html=1;fillColor=#dae8fc;strokeColor=#6c8ebf;" vertex="1" parent="1">
          <mxGeometry x="350" y="390" width="120" height="60" as="geometry" />
        </mxCell>
        <mxCell id="2wMZLsTm2W_XDd2I_gO9-5" value="Vedlikehold" style="rounded=0;whiteSpace=wrap;html=1;fillColor=#dae8fc;strokeColor=#6c8ebf;" vertex="1" parent="1">
          <mxGeometry x="350" y="560" width="120" height="60" as="geometry" />
        </mxCell>
        <mxCell id="2wMZLsTm2W_XDd2I_gO9-8" style="edgeStyle=orthogonalEdgeStyle;rounded=0;orthogonalLoop=1;jettySize=auto;html=1;exitX=0;exitY=0.5;exitDx=0;exitDy=0;endArrow=ERmany;endFill=0;startArrow=ERone;startFill=0;" edge="1" parent="1" source="2wMZLsTm2W_XDd2I_gO9-6" target="2wMZLsTm2W_XDd2I_gO9-4">
          <mxGeometry relative="1" as="geometry" />
        </mxCell>
        <mxCell id="2wMZLsTm2W_XDd2I_gO9-6" value="HytteEier" style="rounded=0;whiteSpace=wrap;html=1;fillColor=#dae8fc;strokeColor=#6c8ebf;" vertex="1" parent="1">
          <mxGeometry x="570" y="390" width="120" height="60" as="geometry" />
        </mxCell>
        <mxCell id="2wMZLsTm2W_XDd2I_gO9-7" value="Betaling" style="rounded=0;whiteSpace=wrap;html=1;fillColor=#dae8fc;strokeColor=#6c8ebf;" vertex="1" parent="1">
          <mxGeometry x="350" y="230" width="120" height="60" as="geometry" />
        </mxCell>
      </root>
    </mxGraphModel>
  </diagram>
</mxfile>
